<mxfile host="app.diagrams.net" modified="2023-11-02T04:31:08.095Z" agent="Mozilla/5.0 (Windows NT 10.0; Win64; x64) AppleWebKit/537.36 (KHTML, like Gecko) Chrome/118.0.0.0 Safari/537.36" etag="ltRO2YP_Utz22fwNvbgY" version="22.0.8" type="github">
  <diagram name="Page-1" id="ops2ROIaHtJrjXYekCuz">
    <mxGraphModel dx="857" dy="349" grid="1" gridSize="10" guides="1" tooltips="1" connect="1" arrows="1" fold="1" page="1" pageScale="1" pageWidth="850" pageHeight="1100" math="0" shadow="0">
      <root>
        <mxCell id="0" />
        <mxCell id="1" parent="0" />
        <mxCell id="CI86vCF6wi3mekGYSjov-1" value="" style="edgeStyle=orthogonalEdgeStyle;rounded=0;orthogonalLoop=1;jettySize=auto;html=1;" edge="1" parent="1" source="CI86vCF6wi3mekGYSjov-2" target="CI86vCF6wi3mekGYSjov-4">
          <mxGeometry relative="1" as="geometry" />
        </mxCell>
        <mxCell id="CI86vCF6wi3mekGYSjov-2" value="star" style="strokeWidth=2;html=1;shape=mxgraph.flowchart.terminator;whiteSpace=wrap;" vertex="1" parent="1">
          <mxGeometry x="410" y="10" width="100" height="60" as="geometry" />
        </mxCell>
        <mxCell id="CI86vCF6wi3mekGYSjov-3" value="" style="edgeStyle=orthogonalEdgeStyle;rounded=0;orthogonalLoop=1;jettySize=auto;html=1;" edge="1" parent="1" source="CI86vCF6wi3mekGYSjov-4">
          <mxGeometry relative="1" as="geometry">
            <mxPoint x="460" y="220" as="targetPoint" />
          </mxGeometry>
        </mxCell>
        <mxCell id="CI86vCF6wi3mekGYSjov-4" value="Lo&lt;br&gt;phr = 3,14&lt;br&gt;r" style="shape=parallelogram;perimeter=parallelogramPerimeter;whiteSpace=wrap;html=1;fixedSize=1;" vertex="1" parent="1">
          <mxGeometry x="400" y="110" width="120" height="60" as="geometry" />
        </mxCell>
        <mxCell id="CI86vCF6wi3mekGYSjov-5" value="" style="edgeStyle=orthogonalEdgeStyle;rounded=0;orthogonalLoop=1;jettySize=auto;html=1;exitX=0.5;exitY=1;exitDx=0;exitDy=0;" edge="1" parent="1" source="CI86vCF6wi3mekGYSjov-10" target="CI86vCF6wi3mekGYSjov-8">
          <mxGeometry relative="1" as="geometry">
            <mxPoint x="460" y="300" as="sourcePoint" />
          </mxGeometry>
        </mxCell>
        <mxCell id="CI86vCF6wi3mekGYSjov-6" value="" style="edgeStyle=orthogonalEdgeStyle;rounded=0;orthogonalLoop=1;jettySize=auto;html=1;" edge="1" parent="1" source="CI86vCF6wi3mekGYSjov-8" target="CI86vCF6wi3mekGYSjov-9">
          <mxGeometry relative="1" as="geometry" />
        </mxCell>
        <mxCell id="CI86vCF6wi3mekGYSjov-7" value="" style="edgeStyle=orthogonalEdgeStyle;rounded=0;orthogonalLoop=1;jettySize=auto;html=1;" edge="1" parent="1" source="CI86vCF6wi3mekGYSjov-8" target="CI86vCF6wi3mekGYSjov-9">
          <mxGeometry relative="1" as="geometry" />
        </mxCell>
        <mxCell id="CI86vCF6wi3mekGYSjov-8" value="Lo" style="shape=parallelogram;perimeter=parallelogramPerimeter;whiteSpace=wrap;html=1;fixedSize=1;" vertex="1" parent="1">
          <mxGeometry x="400" y="341" width="120" height="60" as="geometry" />
        </mxCell>
        <mxCell id="CI86vCF6wi3mekGYSjov-9" value="end" style="strokeWidth=2;html=1;shape=mxgraph.flowchart.terminator;whiteSpace=wrap;" vertex="1" parent="1">
          <mxGeometry x="410" y="450" width="100" height="60" as="geometry" />
        </mxCell>
        <mxCell id="CI86vCF6wi3mekGYSjov-10" value="Lo = phr x r x r" style="rounded=0;whiteSpace=wrap;html=1;" vertex="1" parent="1">
          <mxGeometry x="400" y="220" width="120" height="60" as="geometry" />
        </mxCell>
      </root>
    </mxGraphModel>
  </diagram>
</mxfile>
